<svg width="37" height="22" viewBox="0 0 37 22" fill="none" xmlns="http://www.w3.org/2000/svg">
<path d="M17.8523 7H15.3864C15.2405 6.29072 14.9853 5.66761 14.6207 5.13068C14.2628 4.59375 13.8253 4.14299 13.3082 3.77841C12.7978 3.4072 12.2311 3.12879 11.608 2.94318C10.9848 2.75758 10.3352 2.66477 9.65909 2.66477C8.42614 2.66477 7.30919 2.97633 6.30824 3.59943C5.31392 4.22254 4.52178 5.14062 3.93182 6.35369C3.34849 7.56676 3.05682 9.05492 3.05682 10.8182C3.05682 12.5814 3.34849 14.0696 3.93182 15.2827C4.52178 16.4957 5.31392 17.4138 6.30824 18.0369C7.30919 18.66 8.42614 18.9716 9.65909 18.9716C10.3352 18.9716 10.9848 18.8788 11.608 18.6932C12.2311 18.5076 12.7978 18.2325 13.3082 17.8679C13.8253 17.4967 14.2628 17.0426 14.6207 16.5057C14.9853 15.9621 15.2405 15.339 15.3864 14.6364H17.8523C17.6667 15.6771 17.3286 16.6084 16.8381 17.4304C16.3475 18.2524 15.7377 18.9517 15.0085 19.5284C14.2794 20.0985 13.4607 20.5327 12.5526 20.831C11.651 21.1293 10.6866 21.2784 9.65909 21.2784C7.92235 21.2784 6.37784 20.8542 5.02557 20.0057C3.6733 19.1572 2.60938 17.9508 1.83381 16.3864C1.05824 14.822 0.670455 12.9659 0.670455 10.8182C0.670455 8.67045 1.05824 6.81439 1.83381 5.25C2.60938 3.68561 3.6733 2.47917 5.02557 1.63068C6.37784 0.782196 7.92235 0.357954 9.65909 0.357954C10.6866 0.357954 11.651 0.507102 12.5526 0.805397C13.4607 1.10369 14.2794 1.54119 15.0085 2.1179C15.7377 2.68797 16.3475 3.384 16.8381 4.20597C17.3286 5.02131 17.6667 5.95265 17.8523 7ZM21.837 21V0.636363H28.7177C30.3086 0.636363 31.6145 0.908143 32.6353 1.4517C33.6561 1.98864 34.4118 2.72775 34.9023 3.66903C35.3929 4.61032 35.6381 5.68087 35.6381 6.88068C35.6381 8.08049 35.3929 9.14441 34.9023 10.0724C34.4118 11.0005 33.6594 11.7296 32.6452 12.2599C31.631 12.7836 30.3351 13.0455 28.7575 13.0455H23.1893V10.8182H28.6779C29.765 10.8182 30.64 10.6591 31.3029 10.3409C31.9724 10.0227 32.4563 9.57197 32.7546 8.98864C33.0595 8.39867 33.212 7.69602 33.212 6.88068C33.212 6.06534 33.0595 5.35275 32.7546 4.7429C32.4497 4.13305 31.9625 3.66241 31.293 3.33097C30.6235 2.9929 29.7385 2.82386 28.6381 2.82386H24.3029V21H21.837ZM31.4222 11.8523L36.4336 21H33.57L28.6381 11.8523H31.4222Z" fill="white"/>
</svg>
