<svg width="43" height="46" viewBox="0 0 43 46" fill="none" xmlns="http://www.w3.org/2000/svg">
<path d="M0.963068 33V0.272726H12.0213C14.5781 0.272726 16.6768 0.709516 18.3175 1.5831C19.9581 2.44602 21.1726 3.63388 21.9609 5.14666C22.7493 6.65945 23.1435 8.37997 23.1435 10.3082C23.1435 12.2365 22.7493 13.9464 21.9609 15.4379C21.1726 16.9293 19.9634 18.1012 18.3335 18.9535C16.7035 19.7951 14.6207 20.2159 12.0852 20.2159H3.13636V16.6364H11.9574C13.7045 16.6364 15.1108 16.3807 16.1761 15.8693C17.2521 15.358 18.0298 14.6335 18.5092 13.696C18.9993 12.7479 19.2443 11.6186 19.2443 10.3082C19.2443 8.99787 18.9993 7.85263 18.5092 6.87251C18.0192 5.8924 17.2362 5.13601 16.1602 4.60334C15.0842 4.06001 13.6619 3.78835 11.8935 3.78835H4.92614V33H0.963068ZM16.3679 18.2983L24.4219 33H19.8196L11.8935 18.2983H16.3679ZM30.0029 45.017C29.3957 45.017 28.9003 44.9638 28.5168 44.8572C28.1439 44.7614 27.8296 44.6655 27.574 44.5696L28.341 41.8849C29.2359 42.1726 29.9763 42.2099 30.5622 41.9968C31.1588 41.7944 31.6329 41.2457 31.9845 40.3509L32.4958 39.0085L26.6151 22.2614H30.1947L34.2217 35.2372H34.3495L38.3765 22.2614H42.02L35.4362 40.9261C35.0207 42.0767 34.3762 43.0462 33.5026 43.8345C32.6396 44.6229 31.4731 45.017 30.0029 45.017Z" fill="white"/>
</svg>
