<svg width="42" height="42" viewBox="0 0 42 42" fill="none" xmlns="http://www.w3.org/2000/svg">
<path d="M16.1525 31.1825C17.2807 32.1292 18.9628 31.9821 19.9094 30.8539C20.8561 29.7257 20.7089 28.0436 19.5807 27.097C18.4525 26.1503 16.7705 26.2975 15.8239 27.4257C14.8772 28.5539 15.0243 30.2359 16.1525 31.1825ZM34.1506 9.7333L28.7253 11.708L33.148 15.4191L34.1506 9.7333ZM18.2497 29.4611L31.6411 13.5019L30.875 12.8591L17.4836 28.8184L18.2497 29.4611Z" fill="white"/>
<path d="M0.633362 32.5333C0.633362 30.2702 1.07911 28.0293 1.94517 25.9384C2.81123 23.8476 4.08062 21.9478 5.68089 20.3475C7.28115 18.7473 9.18094 17.4779 11.2718 16.6118C13.3626 15.7458 15.6036 15.3 17.8667 15.3C20.1298 15.3 22.3708 15.7458 24.4616 16.6118C26.5525 17.4779 28.4522 18.7473 30.0525 20.3475C31.6528 21.9478 32.9222 23.8476 33.7882 25.9384C34.6543 28.0293 35.1 30.2702 35.1 32.5333" stroke="white"/>
<path d="M36.1113 8.86667V8.35531L39.2477 3.67349H36.0772V3.04849H40.0886V3.55985L36.9522 8.24167H40.1227V8.86667H36.1113Z" fill="white"/>
</svg>
